<svg width="182" height="182" viewBox="0 0 182 182" fill="none" xmlns="http://www.w3.org/2000/svg">
<rect width="182" height="182" fill="#EEEEEE"/>
<path fill-rule="evenodd" clip-rule="evenodd" d="M86.8693 54.3208L83.76 47.0718H72.96C72.32 47.0718 72 47.3918 72 48.0318L72.12 129.752C72.12 130.312 72.44 130.592 73.08 130.592H85.08C85.8 130.592 86.16 130.272 86.16 129.632L85.32 86.4318L106.08 130.592H116.64C116.772 130.592 116.882 130.566 116.97 130.514L101.5 90L86.8693 54.3208Z" fill="#313131"/>
<mask id="mask0_1026_67" style="mask-type:alpha" maskUnits="userSpaceOnUse" x="95" y="47" width="22" height="75">
<path d="M95 47H117V122L103.5 88L95 70V47Z" fill="#D9D9D9"/>
</mask>
<g mask="url(#mask0_1026_67)">
<path fill-rule="evenodd" clip-rule="evenodd" d="M99 48L101.757 47.3106L103 47L107 46V47H116C116.552 47 117 47.4477 117 48V131H103V61L102.243 61.1892L102.243 61.1894L99 62L96.2425 62.6894C95.6114 62.8472 95 62.3698 95 61.7192V49.7808C95 49.3219 95.3123 48.9219 95.7575 48.8106L99 48Z" fill="#6595CC"/>
</g>
<path d="M39 131.2C34.68 131.2 30.72 130.12 27.12 127.96C23.6 125.72 20.76 122.8 18.6 119.2C16.44 115.52 15.36 111.48 15.36 107.08L15.48 69.04C15.48 64.64 16.52 60.64 18.6 57.04C20.76 53.44 23.64 50.56 27.24 48.4C30.84 46.24 34.76 45.16 39 45.16C43.32 45.16 47.24 46.24 50.76 48.4C54.28 50.56 57.08 53.44 59.16 57.04C61.32 60.64 62.4 64.64 62.4 69.04L62.52 107.08C62.52 111.48 61.44 115.52 59.28 119.2C57.2 122.8 54.36 125.72 50.76 127.96C47.24 130.12 43.32 131.2 39 131.2ZM39 116.68C41.4 116.68 43.48 115.72 45.24 113.8C47.08 111.8 48 109.56 48 107.08L47.88 69.04C47.88 66.4 47.04 64.16 45.36 62.32C43.68 60.48 41.56 59.56 39 59.56C36.52 59.56 34.4 60.48 32.64 62.32C30.88 64.08 30 66.32 30 69.04V107.08C30 109.72 30.88 112 32.64 113.92C34.4 115.76 36.52 116.68 39 116.68ZM127.788 130C127.468 130 127.308 129.8 127.308 129.4L127.428 46.96C127.428 46.64 127.588 46.48 127.908 46.48H166.428C166.748 46.48 166.908 46.68 166.908 47.08V60.52C166.908 60.84 166.748 61 166.428 61H141.828V79.72H166.428C166.748 79.72 166.908 79.88 166.908 80.2L167.028 93.76C167.028 94.08 166.868 94.24 166.548 94.24H141.828V115.24H166.548C166.868 115.24 167.028 115.44 167.028 115.84V129.52C167.028 129.84 166.868 130 166.548 130H127.788Z" fill="#313131"/>
<rect x="10" y="45" width="53" height="87" rx="26.5" fill="#313131"/>
<path d="M37.7962 124.321C37.6163 124.733 37.209 125 36.7589 125V125C36.2998 125 35.8862 124.723 35.712 124.298L31.3757 113.728C29.7656 109.804 32.6517 105.5 36.8937 105.5V105.5C41.1915 105.5 44.0786 109.908 42.3613 113.848L37.7962 124.321Z" fill="#EEEEEE"/>
<path d="M46 105C37 105 42.5 101.028 37 101.028C31.5 101.028 37 105 28 105L28 79L46 79L46 105Z" fill="#EEEEEE"/>
<path d="M46 78C37 78 28 78 28 78L28 74L46 74L46 78Z" fill="#EEEEEE"/>
<path d="M46 73C37 73 28 73 28 73L28 70L46 70L46 73Z" fill="#EEEEEE"/>
<rect x="46" y="68" width="18" height="10" rx="2" transform="rotate(-180 46 68)" fill="#EEEEEE"/>
</svg>
