<svg width="182" height="182" viewBox="0 0 182 182" fill="none" xmlns="http://www.w3.org/2000/svg">
<path fill-rule="evenodd" clip-rule="evenodd" d="M86.8693 54.3208L83.76 47.0718H72.96C72.32 47.0718 72 47.3918 72 48.0318L72.12 129.752C72.12 130.312 72.44 130.592 73.08 130.592H85.08C85.8 130.592 86.16 130.272 86.16 129.632L85.32 86.4318L106.08 130.592H116.64C116.772 130.592 116.882 130.566 116.97 130.514L101.5 90L86.8693 54.3208Z" fill="#313131"/>
<mask id="mask0_1144_539" style="mask-type:alpha" maskUnits="userSpaceOnUse" x="95" y="47" width="22" height="75">
<path d="M95 47H117V122L103.5 88L95 70V47Z" fill="#D9D9D9"/>
</mask>
<g mask="url(#mask0_1144_539)">
<path fill-rule="evenodd" clip-rule="evenodd" d="M99 48L101.757 47.3106L103 47L107 46V47H116C116.552 47 117 47.4477 117 48V131H103V61L102.243 61.1892L102.243 61.1894L99 62L96.2425 62.6894C95.6114 62.8472 95 62.3698 95 61.7192V49.7808C95 49.3219 95.3123 48.9219 95.7575 48.8106L99 48Z" fill="#6595CC"/>
</g>
<path d="M127.788 130C127.468 130 127.308 129.8 127.308 129.4L127.428 46.96C127.428 46.64 127.588 46.48 127.908 46.48H166.428C166.748 46.48 166.908 46.68 166.908 47.08V60.52C166.908 60.84 166.748 61 166.428 61H141.828V79.72H166.428C166.748 79.72 166.908 79.88 166.908 80.2L167.028 93.76C167.028 94.08 166.868 94.24 166.548 94.24H141.828V115.24H166.548C166.868 115.24 167.028 115.44 167.028 115.84V129.52C167.028 129.84 166.868 130 166.548 130H127.788Z" fill="#313131"/>
<path fill-rule="evenodd" clip-rule="evenodd" d="M36.5 45C21.8645 45 10 56.8645 10 71.5V105.5C10 120.136 21.8645 132 36.5 132C51.1355 132 63 120.136 63 105.5V71.5C63 56.8645 51.1355 45 36.5 45ZM36.7589 125C37.209 125 37.6163 124.733 37.7962 124.321L42.3613 113.848C44.0786 109.908 41.1915 105.5 36.8937 105.5C32.6517 105.5 29.7656 109.804 31.3757 113.728L35.712 124.298C35.8862 124.723 36.2998 125 36.7589 125ZM46 105C40.9487 105 40.465 103.749 40.0405 102.651C39.7087 101.792 39.4131 101.028 37 101.028C34.5869 101.028 34.2912 101.792 33.9594 102.651C33.535 103.749 33.0513 105 28 105L28 79L46 79L46 105ZM28 78H46V74H28L28 78ZM46 73H28V70H46V73ZM44 68C45.1046 68 46 67.1046 46 66V60C46 58.8954 45.1046 58 44 58H30C28.8954 58 28 58.8954 28 60V66C28 67.1046 28.8954 68 30 68H44Z" fill="#313131"/>
</svg>
